<?xml version="1.0" encoding="iso-8859-1"?>
<!-- Generator: Adobe Illustrator 19.0.0, SVG Export Plug-In . SVG Version: 6.00 Build 0)  -->
<svg version="1.1" id="Capa_1" xmlns="http://www.w3.org/2000/svg" xmlns:xlink="http://www.w3.org/1999/xlink" x="0px" y="0px"
	 viewBox="0 0 411.132 411.132" style="enable-background:new 0 0 411.132 411.132;" xml:space="preserve">
<path id="XMLID_597_" d="M411.132,310.184c0,5.523-4.477,10-10,10H10c-5.523,0-10-4.477-10-10s4.477-10,10-10h391.132
	C406.655,300.184,411.132,304.661,411.132,310.184z M0,263.783c0-5.523,4.477-10,10-10h5.835L91.86,135.817
	c1.847-2.867,4.981-4.58,8.437-4.583c3.409,0.011,6.579,1.758,8.408,4.635l21.494,33.81l67.94-75.424
	c1.896-2.105,4.597-3.307,7.43-3.307s5.534,1.202,7.43,3.307l67.43,74.861l22.1-33.4c1.853-2.8,4.985-4.482,8.339-4.482
	c0.021,0,0.041,0,0.061,0c3.377,0.021,6.516,1.744,8.345,4.583l76.021,117.966h5.835c5.523,0,10,4.477,10,10s-4.477,10-10,10H10
	C4.477,273.783,0,269.306,0,263.783z M294.254,184.466l62.437,69.317h14.812l-60.745-94.26L294.254,184.466z M81.357,253.783
	h248.417l-55.419-61.527c-0.101-0.107-0.199-0.216-0.294-0.327l-68.491-76.04L81.357,253.783z M39.629,253.783H54.44l61.864-68.679
	l-16.096-25.32L39.629,253.783z"/>
<g>
</g>
<g>
</g>
<g>
</g>
<g>
</g>
<g>
</g>
<g>
</g>
<g>
</g>
<g>
</g>
<g>
</g>
<g>
</g>
<g>
</g>
<g>
</g>
<g>
</g>
<g>
</g>
<g>
</g>
</svg>
